<svg width="19" height="26" viewBox="0 0 19 26" fill="none" xmlns="http://www.w3.org/2000/svg">
<path d="M18.5828 8.87978C18.5828 9.58835 18.3313 9.97692 17.8285 10.0455C17.1885 10.1141 15.6685 10.4112 13.2685 10.9369C10.8913 11.4398 9.14275 11.8398 8.02275 12.1369C8.02275 12.6398 8.02275 13.7026 8.02275 15.3255C8.04561 16.9255 8.07989 18.2855 8.12561 19.4055C8.14847 19.8398 8.19418 20.3198 8.26275 20.8455C8.35418 21.3712 8.41132 21.7483 8.43418 21.9769C8.57132 22.7998 8.63989 23.2912 8.63989 23.4512C8.63989 23.7026 8.51418 24.0683 8.26275 24.5483C8.03418 25.0512 7.83989 25.3026 7.67989 25.3026C7.51989 25.3026 7.37132 25.2226 7.23418 25.0626C7.09704 24.9026 7.00561 24.7083 6.95989 24.4798C6.73132 23.4512 6.57132 21.7826 6.47989 19.4741C6.36561 16.6626 6.30847 14.4683 6.30847 12.8912C6.17132 12.9141 5.94275 12.9598 5.62275 13.0283C5.32561 13.0741 5.06275 13.1083 4.83418 13.1312C4.60561 13.1312 4.36561 13.0741 4.11418 12.9598C3.86275 12.8455 3.73704 12.7083 3.73704 12.5483C3.73704 12.3655 3.79418 12.2283 3.90847 12.1369C4.04561 12.0455 4.19418 11.9769 4.35418 11.9312C4.51418 11.8626 4.62847 11.8169 4.69704 11.7941C5.51989 11.4512 6.06847 11.2341 6.34275 11.1426L6.06847 3.49692C4.37704 3.77121 3.13132 3.90835 2.33132 3.90835C1.43989 3.90835 0.822751 3.6912 0.479894 3.25692C0.159894 2.82263 -0.000106027 2.42263 -0.000106027 2.05692C-0.000106027 1.85121 0.148465 1.74835 0.445608 1.74835C0.491323 1.74835 0.75418 1.82835 1.23418 1.98835C1.73704 2.14835 2.17132 2.22835 2.53704 2.22835C3.26847 2.22835 4.43418 2.11406 6.03418 1.88549C6.03418 1.83978 6.04561 1.66835 6.06847 1.3712C6.09132 1.0512 6.19418 0.76549 6.37704 0.514062C6.49132 0.308348 6.59418 0.171205 6.68561 0.102633C6.77704 0.0340622 6.87989 -0.00022304 6.99418 -0.00022304C7.42847 -0.00022304 7.64561 0.479777 7.64561 1.43978C7.96561 1.3712 8.68561 1.23406 9.80561 1.02835C10.9485 0.822633 12.2513 0.628348 13.7142 0.445492C15.177 0.262634 16.4456 0.171205 17.5199 0.171205C18.3885 0.171205 18.8228 0.342634 18.8228 0.685491C18.8228 0.959777 18.7199 1.31406 18.5142 1.74835C18.3313 2.18263 18.1142 2.39978 17.8628 2.39978C17.7713 2.39978 17.6799 2.35406 17.5885 2.26263C17.497 2.14835 17.4285 2.07978 17.3828 2.05692C17.177 1.96549 16.8799 1.91978 16.4913 1.91978C15.7828 1.91978 14.3656 2.06835 12.2399 2.36549C10.137 2.66263 8.61704 2.91406 7.67989 3.11978L7.91989 10.5598C9.15418 10.2398 11.0513 9.80549 13.6113 9.25692C16.1713 8.70835 17.6685 8.43406 18.1028 8.43406C18.2856 8.43406 18.4113 8.46835 18.4799 8.53692C18.5485 8.58263 18.5828 8.69692 18.5828 8.87978Z" fill="white"/>
</svg>
