<svg width="23" height="23" viewBox="0 0 23 23" fill="none" xmlns="http://www.w3.org/2000/svg">
<path fill-rule="evenodd" clip-rule="evenodd" d="M13.3226 11.0837L21.7031 2.70315C22.3222 2.08406 22.3222 1.0834 21.7031 0.464312C21.0841 -0.154771 20.0834 -0.154771 19.4643 0.464312L11.0837 8.8449L2.70315 0.464312C2.08406 -0.154771 1.0834 -0.154771 0.464312 0.464312C-0.154771 1.0834 -0.154771 2.08406 0.464312 2.70315L8.8449 11.0837L0.464312 19.4643C-0.154771 20.0834 -0.154771 21.0841 0.464312 21.7031C0.773063 22.0119 1.1784 22.1671 1.58373 22.1671C1.98906 22.1671 2.3944 22.0119 2.70315 21.7031L11.0837 13.3226L19.4643 21.7031C19.7731 22.0119 20.1784 22.1671 20.5837 22.1671C20.9891 22.1671 21.3944 22.0119 21.7031 21.7031C22.3222 21.0841 22.3222 20.0834 21.7031 19.4643L13.3226 11.0837Z" fill="white"/>
</svg>
