<svg width="23" height="23" viewBox="0 0 23 23" fill="none" xmlns="http://www.w3.org/2000/svg">
<path d="M15.3825 10.7017L12.0524 14.7038C11.985 14.7849 11.9005 14.8501 11.805 14.8949C11.7095 14.9397 11.6053 14.9629 11.4999 14.9629C11.3944 14.9629 11.2902 14.9397 11.1947 14.8949C11.0993 14.8501 11.0148 14.7849 10.9473 14.7038L7.61728 10.7017C7.53001 10.5968 7.47442 10.4691 7.45703 10.3338C7.43964 10.1984 7.46116 10.0608 7.51907 9.93723C7.57699 9.81363 7.6689 9.70907 7.78406 9.63579C7.89922 9.56251 8.03287 9.52354 8.16937 9.52344H14.8304C14.9669 9.52354 15.1005 9.56251 15.2157 9.63579C15.3309 9.70907 15.4228 9.81363 15.4807 9.93723C15.5386 10.0608 15.5601 10.1984 15.5427 10.3338C15.5253 10.4691 15.4697 10.5968 15.3825 10.7017Z" fill="white"/>
</svg>
