<svg width="25" height="25" viewBox="0 0 25 25" fill="none" xmlns="http://www.w3.org/2000/svg">
<path d="M6.14221 14.5878C7.41431 14.5878 8.44555 13.5565 8.44555 12.2844C8.44555 11.0123 7.41431 9.98108 6.14221 9.98108C4.87011 9.98108 3.83887 11.0123 3.83887 12.2844C3.83887 13.5565 4.87011 14.5878 6.14221 14.5878Z" stroke="white" stroke-width="1.16995" stroke-linecap="round" stroke-linejoin="round"/>
<path d="M18.4254 7.67773C19.6975 7.67773 20.7288 6.64649 20.7288 5.37439C20.7288 4.10229 19.6975 3.07104 18.4254 3.07104C17.1533 3.07104 16.1221 4.10229 16.1221 5.37439C16.1221 6.64649 17.1533 7.67773 18.4254 7.67773Z" stroke="white" stroke-width="1.16995" stroke-linecap="round" stroke-linejoin="round"/>
<path d="M18.4254 21.4979C19.6975 21.4979 20.7288 20.4667 20.7288 19.1946C20.7288 17.9225 19.6975 16.8912 18.4254 16.8912C17.1533 16.8912 16.1221 17.9225 16.1221 19.1946C16.1221 20.4667 17.1533 21.4979 18.4254 21.4979Z" stroke="white" stroke-width="1.16995" stroke-linecap="round" stroke-linejoin="round"/>
<path d="M16.4203 6.50366L8.15039 11.1554M8.15039 13.4137L16.4203 18.0655L8.15039 13.4137Z" stroke="white" stroke-width="1.16995" stroke-linecap="round" stroke-linejoin="round"/>
</svg>
